<svg xmlns="http://www.w3.org/2000/svg" version="1.1" xmlns:xlink="http://www.w3.org/1999/xlink" xmlns:svgjs="http://svgjs.dev/svgjs" viewBox="0 0 800 800" opacity="0.76"><defs><linearGradient x1="50%" y1="0%" x2="50%" y2="100%" id="gggyrate-grad"><stop stop-color="hsl(167, 88%, 46%)" stop-opacity="1" offset="0%"></stop><stop stop-color="hsl(356, 87%, 70%)" stop-opacity="1" offset="100%"></stop></linearGradient></defs><g stroke-width="4.5" stroke="url(#gggyrate-grad)" fill="none"><path d="M383.94293201384835 127.27728953565139C390.5202832935314 113.98373924753474 409.4797167064686 113.98373924753474 416.05706798615165 127.27728953565139L678.1187191258281 656.8313295927475C684.0107896797425 668.7386420728546 675.3484829893052 682.6928388122843 662.0616511396765 682.6928388122843H137.93834886032346C124.65151701069476 682.6928388122843 115.9892103202576 668.7386420728546 121.88128087417175 656.8313295927475L383.94293201384835 127.27728953565139Z " transform="rotate(60, 400, 400)" opacity="0.05"></path><path d="M384.74575489557776 140.91342353298992C390.9942386112766 128.2845507592791 409.00570035356714 128.2845507592791 415.2541840692659 140.91342353298992L664.2127526519586 643.9897615872312C669.8102196781772 655.3017084433329 661.5810283222619 668.5581953457912 648.9585380651146 668.5581953457912H151.04140089972918C138.41891064258192 668.5581953457912 130.18971928666662 655.3017084433329 135.78718631288507 643.9897615872312L384.74575489557776 140.91342353298992Z " transform="rotate(57, 400, 400)" opacity="0.10"></path><path d="M385.54866933004155 154.54957278911752C391.4682854817563 142.58537752981252 408.53177555339994 142.58537752981252 414.4513917051147 154.54957278911752L650.3068777308233 631.1482088405039C655.6097412293464 641.8647900726005 647.8136652079529 654.4235671380872 635.855516543287 654.4235671380872H164.14454449186923C152.18639582720346 654.4235671380872 144.39031980580995 641.8647900726005 149.6931833043327 631.1482088405039L385.54866933004155 154.54957278911752Z " transform="rotate(54, 400, 400)" opacity="0.15"></path><path d="M386.3514922117711 168.18570678645602C391.94224079950163 156.8861890415569 408.05775920049837 156.8861890415569 413.6485077882289 168.18570678645602L636.4009112569538 618.3066408349878C641.4091712277811 628.4278564430788 634.0462105409094 640.288923671594 622.7524034687251 640.288923671594H177.24759653127495C165.95378945909056 640.288923671594 158.59082877221897 628.4278564430788 163.59908874304602 618.3066408349878L386.3514922117711 168.18570678645602Z " transform="rotate(51, 400, 400)" opacity="0.20"></path><path d="M387.1543303522896 181.82184078379456C392.416211376036 171.18700055330123 407.58375810638586 171.18700055330123 412.84563913013227 181.82184078379456L622.4949600418735 605.4650728294714C627.208616485005 614.9909228135571 620.278771132655 626.1542802051009 609.6493056529521 626.1542802051009H190.35066382946974C179.72119834976678 626.1542802051009 172.79135299741705 614.9909228135571 177.50500944054835 605.4650728294714L387.1543303522896 181.82184078379456Z " transform="rotate(48, 400, 400)" opacity="0.25"></path><path d="M387.95719901038626 195.4579747811331C392.8902124701485 185.4878120650456 407.1097875298515 185.4878120650456 412.04280098961374 195.4579747811331L608.589039344371 592.6235048239552C613.008092259807 601.5539891840356 606.511362241979 612.0196367386078 596.5462383547574 612.0196367386078H203.4537616452426C193.48863775802107 612.0196367386078 186.9919077401932 601.5539891840356 191.41096065562886 592.6235048239552L387.95719901038626 195.4579747811331Z " transform="rotate(45, 400, 400)" opacity="0.30"></path><path d="M388.7600524096938 209.0941087784716C393.364198305472 199.78862357678994 406.635801694528 199.78862357678994 411.2399475903062 209.0941087784716L594.6831033880796 579.7819368184389C598.8075527758198 588.1170555545139 592.7439380925136 597.8849932721147 583.4431557977736 597.8849932721147H216.55684420222644C207.25606190748636 597.8849932721147 201.19244722418034 588.1170555545139 205.31689661192024 579.7819368184389L388.7600524096938 209.0941087784716Z " transform="rotate(42, 400, 400)" opacity="0.35"></path><path d="M389.5629058090014 222.73024277581013C393.8381841407954 214.08943508853432 406.1618158592046 214.08943508853432 410.4370941909986 222.73024277581013L580.7771674317883 566.9403688129225C584.6070132918327 574.6801219249922 578.9765139430484 583.7503498056216 570.3400732407897 583.7503498056216H229.65992675921024C221.02348605695158 583.7503498056216 215.39298670816743 574.6801219249922 219.22283256821163 566.9403688129225L389.5629058090014 222.73024277581013Z " transform="rotate(39, 400, 400)" opacity="0.40"></path><path d="M390.365759208309 236.36637677314866C394.31216997611887 228.39024660027866 405.68783002388113 228.39024660027866 409.634240791691 236.36637677314866L566.8712314754969 554.0988008074064C570.4064738078455 561.2431882954706 565.2090897935832 569.6157063391285 557.236990683806 569.6157063391285H242.7630093161941C234.79091020641687 569.6157063391285 229.59352619215457 561.2431882954706 233.12876852450307 554.0988008074064L390.365759208309 236.36637677314866Z " transform="rotate(36, 400, 400)" opacity="0.45"></path><path d="M391.1686126076165 250.00251077048716C394.78615581144226 242.69105811202303 405.21384418855774 242.69105811202303 408.8313873923835 250.00251077048716L552.9652955192055 541.25723280189C556.2059343238584 547.8062546659489 551.4416656441178 555.4810628726352 544.133908126822 555.4810628726352H255.86609187317788C248.55833435588215 555.4810628726352 243.7940656761417 547.8062546659489 247.03470448079446 541.25723280189L391.1686126076165 250.00251077048716Z " transform="rotate(33, 400, 400)" opacity="0.50"></path><path d="M391.9714660069242 263.63864476782567C395.2601416467657 256.99186962376734 404.7398583532343 256.99186962376734 408.0285339930758 263.63864476782567L539.0593595629141 528.4156647963737C542.0053948398713 534.3693210364273 537.6742414946526 541.3464194061421 531.0308255698383 541.3464194061421H268.96917443016173C262.3257585053474 541.3464194061421 257.9946051601288 534.3693210364273 260.9406404370859 528.4156647963737L391.9714660069242 263.63864476782567Z " transform="rotate(30, 400, 400)" opacity="0.55"></path><path d="M392.7743194062317 277.27478639455876C395.7341274820891 271.2926887649063 404.2658725179109 271.2926887649063 407.2256805937683 277.27478639455876L525.1534236066226 515.574104420252C527.8048553558841 520.9323950363002 523.9068173451874 527.2117835690435 517.9277430128544 527.2117835690435H282.0722569871456C276.09318265481267 527.2117835690435 272.19514464411594 520.9323950363002 274.8465763933773 515.574104420252L392.7743194062317 277.27478639455876Z " transform="rotate(27, 400, 400)" opacity="0.60"></path><path d="M393.57717280553936 290.91092039189726C396.20811331741254 285.5935002766506 403.79188668258746 285.5935002766506 406.42282719446064 290.91092039189726L511.24748765033127 502.7325364147357C513.604315871897 507.49546140677853 510.13939319572205 513.0771401025504 504.82466045587057 513.0771401025504H295.1753395441294C289.8606068042779 513.0771401025504 286.395684128103 507.49546140677853 288.75251234966873 502.7325364147357L393.57717280553936 290.91092039189726Z " transform="rotate(24, 400, 400)" opacity="0.65"></path><path d="M394.3800262048469 304.5470620186303C396.682099152736 299.8943194177895 403.317900847264 299.8943194177895 405.6199737951531 304.5470620186303L497.3415516940398 489.890976038614C499.4037763879099 494.05853540665146 496.3719690462568 498.9425042654519 491.7215778988868 498.9425042654519H308.2784221011132C303.6280309537432 498.9425042654519 300.59622361209017 494.05853540665146 302.6584483059601 489.890976038614L394.3800262048469 304.5470620186303Z " transform="rotate(21, 400, 400)" opacity="0.70"></path><path d="M395.1828796041545 318.18319601596886C397.15608498805943 314.1951309295339 402.84391501194057 314.1951309295339 404.8171203958455 318.18319601596886L483.43561573774844 477.04940803309773C485.20323690392274 480.62160177712985 482.6045448967916 484.80786079895876 478.618495341903 484.80786079895876H321.381504658097C317.39545510320846 484.80786079895876 314.79676309607726 480.62160177712985 316.5643842622515 477.04940803309773L395.1828796041545 318.18319601596886Z " transform="rotate(18, 400, 400)" opacity="0.75"></path><path d="M395.9857330034621 331.8193300133074C397.6300708233829 328.4959424412782 402.3699291766171 328.4959424412782 404.0142669965379 331.8193300133074L469.52967978145705 464.20784002758137C471.00269741993566 467.1846681476082 468.8371207473263 470.6732173324656 465.51541278491914 470.6732173324656H334.48458721508086C331.1628792526737 470.6732173324656 328.9973025800644 467.1846681476082 330.47032021854295 464.20784002758137L395.9857330034621 331.8193300133074Z " transform="rotate(15, 400, 400)" opacity="0.80"></path><path d="M396.7885864027697 345.45546401064587C398.10405665870627 342.7967539530226 401.89594334129373 342.7967539530226 403.2114135972303 345.45546401064587L455.62374382516566 451.3662720220651C456.8021579359485 453.74773451808653 455.069696597861 456.53857386597247 452.4123302279353 456.53857386597247H347.5876697720647C344.930303402139 456.53857386597247 343.19784206405154 453.74773451808653 344.37625617483434 451.3662720220651L396.7885864027697 345.45546401064587Z " transform="rotate(12, 400, 400)" opacity="0.85"></path><path d="M397.5914398020773 359.09159800798443C398.5780424940297 357.09756546476694 401.4219575059703 357.09756546476694 402.4085601979227 359.09159800798443L441.7178078688742 438.52470401654887C442.6016184519614 440.3108008885649 441.3022724483958 442.40393039947935 439.3092476709515 442.40393039947935H360.6907523290485C358.6977275516042 442.40393039947935 357.3983815480386 440.3108008885649 358.2821921311258 438.52470401654887L397.5914398020773 359.09159800798443Z " transform="rotate(9, 400, 400)" opacity="0.90"></path><path d="M398.3942932013848 372.727732005323C399.0520283293531 371.39837697651126 400.9479716706469 371.39837697651126 401.6057067986152 372.727732005323L427.81187191258283 425.68313601103256C428.40107896797423 426.87386725904327 427.5348482989305 428.26928693298623 426.20616511396764 428.26928693298623H373.79383488603236C372.4651517010695 428.26928693298623 371.59892103202577 426.87386725904327 372.18812808741717 425.68313601103256L398.3942932013848 372.727732005323Z " transform="rotate(6, 400, 400)" opacity="0.95"></path><path d="M399.1971466006924 386.36386600266144C399.52601416467655 385.6991884882557 400.47398583532345 385.6991884882557 400.8028533993076 386.36386600266144L413.9059359562914 412.84156800551625C414.20053948398714 413.43693362952166 413.7674241494653 414.1346434664931 413.10308255698385 414.1346434664931H386.89691744301615C386.2325758505347 414.1346434664931 385.79946051601286 413.43693362952166 386.0940640437086 412.84156800551625L399.1971466006924 386.36386600266144Z " transform="rotate(3, 400, 400)" opacity="1.00"></path></g></svg>